<?xml version="1.0" standalone="no"?>
<!DOCTYPE svg PUBLIC "-//W3C//DTD SVG 20010904//EN"
 "http://www.w3.org/TR/2001/REC-SVG-20010904/DTD/svg10.dtd">
<svg version="1.0" xmlns="http://www.w3.org/2000/svg"
 width="30" height="30" viewBox="0 0 981.000000 982.000000"
 preserveAspectRatio="xMidYMid meet">

<g transform="translate(0.000000,982.000000) scale(0.100000,-0.100000)"
fill="#000000" stroke="none">
<path d="M5975 9795 c-97 -28 -196 -86 -270 -160 -84 -84 -119 -148 -181 -326
-225 -647 -620 -1133 -1342 -1646 -248 -176 -517 -343 -1148 -711 -822 -479
-1236 -753 -1599 -1057 -677 -566 -1107 -1172 -1366 -1925 -53 -153 -53 -156
-54 -275 0 -97 4 -133 22 -190 50 -157 -25 -77 1668 -1773 1166 -1168 1588
-1586 1641 -1621 102 -69 176 -92 309 -98 126 -6 201 8 300 57 140 68 255 200
309 355 83 235 107 293 177 435 270 544 709 988 1454 1472 155 101 494 307
730 443 639 369 981 579 1280 788 891 621 1448 1279 1768 2087 111 281 132
357 132 485 0 86 -5 125 -22 180 -50 157 25 78 -1668 1773 -1166 1169 -1588
1586 -1641 1621 -109 73 -175 93 -324 97 -87 2 -140 -1 -175 -11z m3184 -3772
c-137 -398 -344 -759 -628 -1098 -109 -131 -366 -384 -516 -509 -377 -315
-701 -528 -1595 -1051 -710 -415 -985 -590 -1305 -830 -698 -523 -1161 -1122
-1392 -1803 l-38 -112 -1532 1532 -1531 1531 40 116 c180 524 493 1001 924
1410 332 315 740 609 1349 973 88 53 313 185 500 293 986 574 1395 863 1806
1274 310 310 510 583 688 938 59 119 154 349 187 456 l18 58 1532 -1532 1532
-1532 -39 -114z"/>
<path d="M6349 8288 c-47 -12 -50 -15 -220 -248 -203 -279 -290 -382 -488
-581 -168 -168 -341 -319 -496 -435 -79 -58 -100 -93 -99 -162 2 -76 72 -142
151 -142 55 0 66 6 178 93 311 244 583 508 799 777 159 198 353 472 365 516
30 113 -73 212 -190 182z"/>
<path d="M4462 6315 c-148 -45 -287 -120 -393 -214 l-44 -39 -44 39 c-23 21
-58 41 -77 45 -72 13 -134 -42 -134 -119 0 -31 8 -46 46 -87 45 -48 46 -51 30
-72 -111 -152 -190 -302 -232 -443 -35 -119 -44 -308 -19 -404 43 -165 157
-300 329 -387 227 -117 552 -96 889 57 62 28 117 52 122 54 6 2 59 -53 119
-123 59 -70 179 -205 265 -301 86 -95 157 -176 159 -180 4 -12 -125 -92 -173
-106 -66 -20 -145 -19 -205 4 -28 11 -97 47 -153 80 -157 93 -221 99 -315 31
-85 -61 -113 -136 -86 -228 13 -47 28 -69 92 -133 117 -116 262 -180 447 -195
205 -17 431 66 602 220 l62 56 90 -84 c102 -96 135 -109 194 -81 48 22 70 59
70 114 0 47 -9 59 -141 172 l-54 45 55 77 c235 328 317 649 227 890 -64 169
-299 362 -510 418 -227 59 -442 27 -765 -116 -69 -31 -130 -55 -135 -53 -4 2
-63 66 -131 143 -68 77 -177 198 -242 269 l-120 130 29 24 c106 88 226 99 460
44 126 -30 145 -32 185 -22 87 24 150 127 135 222 -10 59 -46 116 -111 176
-84 77 -141 95 -305 99 -120 3 -144 0 -218 -22z m-205 -802 c169 -181 333
-362 333 -369 0 -10 -147 -73 -206 -89 -127 -33 -237 -9 -317 70 -103 102
-103 277 1 433 48 72 56 82 63 82 3 0 60 -57 126 -127z m1346 -581 c57 -25
121 -83 154 -140 35 -59 43 -172 18 -258 -19 -66 -69 -162 -112 -212 l-28 -33
-161 173 c-150 161 -301 329 -333 371 -12 15 -6 20 65 53 165 75 297 90 397
46z"/>
<path d="M4555 3037 c-78 -35 -456 -358 -625 -533 -190 -197 -288 -315 -484
-584 -158 -215 -159 -219 -154 -287 4 -46 10 -60 41 -91 32 -31 43 -36 94 -39
45 -3 65 0 89 16 17 10 93 104 169 208 189 258 284 371 465 557 155 159 307
294 480 429 120 93 135 113 135 182 0 57 -18 91 -67 128 -33 25 -104 31 -143
14z"/>
</g>
</svg>
